<mxfile host="app.diagrams.net" modified="2024-05-16T23:40:30.228Z" agent="Mozilla/5.0 (Macintosh; Intel Mac OS X 10_15_7) AppleWebKit/605.1.15 (KHTML, like Gecko) Version/16.5.1 Safari/605.1.15" version="24.4.0" etag="NbyeewYRCT_csZt90ehu" type="github">
  <diagram name="PÃ¡gina-1" id="sIlX2uSXvqIhyPn-_z5G">
    <mxGraphModel>
      <root>
        <mxCell id="0" />
        <mxCell id="1" parent="0" />
      </root>
    </mxGraphModel>
  </diagram>
</mxfile>
